<?xml version="1.0" encoding="UTF-8"?>
<svg id="Layer_2" xmlns="http://www.w3.org/2000/svg" viewBox="0 0 789.03 353.04">
  <defs>
    <style>
      .cls-1 {
        fill: #fff;
      }

      .cls-2 {
        fill: #e01581;
      }
    </style>
  </defs>
  <g id="Laag_1">
    <g>
      <path class="cls-2" d="M593.19,298.8s0-.04,0-.06V33.42s0-.04,0-.06c-18.42,0-33.35-14.93-33.35-33.35-.02,0-.04,0-.06,0H33.42C14.96,0,0,14.96,0,33.42v265.33c0,18.46,14.96,33.42,33.42,33.42h526.36s.04,0,.06,0c0-18.42,14.93-33.35,33.35-33.35Z"/>
      <path class="cls-2" d="M761.64,25.78l-81.63-14.93s-.04,0-.06,0c-3.33,18.12-20.71,30.11-38.83,26.79,0,.02-.01.04-.01.06l-47.88,260.97s0,.04,0,.06c.09.02.17.04.25.06,18.29.16,33.07,15.02,33.07,33.34,0,2.23-.23,4.4-.64,6.51l75.8,13.86c18.15,3.33,35.57-8.69,38.9-26.84l47.88-260.97c3.33-18.15-8.69-35.57-26.84-38.9Z"/>
      <g>
        <path class="cls-1" d="M93.37,86.44h-34.95v-22.59h91.53v22.59l-31.68.16v92.73h-24.89v-92.9Z"/>
        <path class="cls-1" d="M162.29,76.95c0-7.92,5.78-13.09,13.39-13.09s13.4,5.18,13.4,13.09-5.79,13.09-13.4,13.09-13.39-5.33-13.39-13.09ZM165.18,102.37h21.31v76.89h-21.31v-76.89Z"/>
        <path class="cls-1" d="M228.35,138.7c0,14.18,9.89,21.1,21.26,21.1,8.57,0,15.5-2.14,23.57-7.58v23.91c-5.93,2.8-14.01,5.61-24.73,5.61-25.39,0-44.02-17.48-44.02-43.03s18.63-42.7,44.02-42.7c10.71,0,18.79,2.8,24.73,5.61v23.74c-8.07-5.28-15-7.58-23.57-7.58-11.37,0-21.26,7.25-21.26,20.94Z"/>
        <path class="cls-1" d="M348.33,179.26l-21.26-33.14-11.71,11.71v21.43h-23.08V63.85h23.08v63.97l31.37-31.83h29.68l-32.69,33.31,32.15,49.95h-27.53Z"/>
        <path class="cls-1" d="M375.79,138.37c0-25.39,18.3-42.37,41.38-42.37,25.55,0,40.06,17.8,40.06,42.7,0,1.98-.16,5.44-.33,6.76h-57.04c.5,11.05,10.72,17.15,20.78,17.15,10.88,0,20.11-2.97,30.66-9.89v19.95c-7.42,4.78-16.98,9.07-33.14,9.07-23.24,0-42.37-15.5-42.37-43.36ZM433.99,129.96c-.5-7.58-5.77-14.84-16.82-14.84-10.05,0-16.32,7.58-16.81,14.84h33.63Z"/>
        <path class="cls-1" d="M476.5,155.52v-40.39h-9.51l-3-19.13h13.34v-21.93l22.26-8.24v30.17h17.97v19.13h-17.97v34.95c0,7.25,3.62,10.88,11.37,10.88,2.47,0,4.78-.49,6.59-.99v19.95c-2.14.66-8.07,1.81-13.85,1.81-14.67,0-27.2-7.42-27.2-26.21Z"/>
      </g>
      <g>
        <path class="cls-1" d="M82.47,237.96c0,14.34,10.63,21.52,20.62,21.52,7.17,0,12.94-1.66,19.21-5.89v12.81c-4.61,2.18-10.89,4.36-19.21,4.36-18.96,0-32.92-13.58-32.92-32.79s13.96-32.66,32.92-32.66c8.33,0,14.6,2.18,19.21,4.35v12.81c-6.28-4.23-12.04-5.89-19.21-5.89-9.99,0-20.62,7.04-20.62,21.39Z"/>
        <path class="cls-1" d="M135.76,237.96c0-18.7,13.71-32.66,32.41-32.66s32.4,13.96,32.4,32.66-13.71,32.79-32.4,32.79-32.41-13.96-32.41-32.79ZM188.41,237.96c0-14.22-9.74-21.78-20.24-21.78s-20.24,7.56-20.24,21.78,9.74,21.9,20.24,21.9,20.24-7.56,20.24-21.9Z"/>
        <path class="cls-1" d="M219.16,247.82v-42.52h11.53v39.57c0,9.35,6.66,14.86,14.34,14.86,6.53,0,11.66-3.07,15.63-8.07v-46.36h11.53v63.53h-11.27v-5.89c-4.23,4.36-10.37,7.81-18.57,7.81-11.79,0-23.18-7.94-23.18-22.93Z"/>
        <path class="cls-1" d="M292.99,205.3h11.27v7.94c4.23-4.36,10.37-7.94,18.57-7.94,11.79,0,23.18,7.94,23.18,22.93v40.6h-11.53v-37.66c0-9.35-6.66-14.86-14.34-14.86-6.53,0-11.66,3.2-15.63,8.2v44.32h-11.53v-63.53Z"/>
        <path class="cls-1" d="M366.74,253.72v-33.21h-7.26l-1.61-10.25h9.64v-10.22l10.76-6.4v16.63h14.99v10.25h-14.99v31.41c0,5.64,3.08,8.45,9.22,8.45,2.05,0,4.36-.38,5.76-.9v9.99c-1.03.38-5.13,1.28-9.22,1.28-10.5,0-17.29-5.89-17.29-17.04Z"/>
        <path class="cls-1" d="M404.13,237.83c0-19.73,13.96-32.53,30.23-32.53,19.08,0,30.1,13.83,30.1,33.17,0,1.54-.13,3.33-.26,4.1h-47.65c.51,10.25,8.84,17.55,19.21,17.55s17.42-2.82,25.75-9.35v11.4c-5.25,4.1-13.19,8.58-25.75,8.58-17.16,0-31.63-11.14-31.63-32.92ZM451.91,232.58c-.26-9.74-6.4-16.65-17.55-16.65-10.12,0-16.91,7.81-17.42,16.65h34.97Z"/>
        <path class="cls-1" d="M482.24,203.45h11.59v13.03c3.29-8.43,11.06-13.04,19.36-13.04,1.98,0,3.43.26,4.35.39v13.17c-1.84-.26-3.95-.4-5.66-.4-10.4,0-16.07,6.85-17.78,12.91v39.25h-11.86v-65.32Z"/>
      </g>
    </g>
  </g>
</svg>

